<?xml version="1.0" encoding="utf-8"?>
<svg version="1.1" id="Layer_1" x="0px" y="0px" width="100%" viewBox="0 0 753 777" enable-background="new 0 0 753 777" xmlns="http://www.w3.org/2000/svg" xmlns:bx="https://boxy-svg.com">
  <g id="shadows">
    <path style="stroke: rgb(0, 0, 0); stroke-width: 0px; fill: rgba(0, 0, 0, 0.08);" d="M 620.7828333333332 536.4174999999999 C 621.5536666666666 536.5790000000001 623.0953333333333 536.902 625.3849999999999 536.984 C 627.6746666666667 537.066 630.7123333333333 536.907 634.1815 536.6398333333333 C 637.6506666666667 536.3726666666666 641.5513333333333 535.9973333333334 645.8996666666667 535.3511666666667 C 650.248 534.7049999999999 655.044 533.788 659.581 532.8069999999999 C 664.118 531.826 668.3960000000001 530.781 672.5301666666667 529.5016666666667 C 676.6643333333333 528.2223333333333 680.6546666666667 526.7086666666668 685.0858333333332 524.6788333333334 C 689.5169999999999 522.649 694.389 520.1030000000001 698.5876666666667 518.1626666666667 C 702.7863333333333 516.2223333333333 706.3116666666666 514.8876666666666 709.6885000000001 513.692 C 713.0653333333333 512.4963333333334 716.2936666666668 511.43966666666665 718.817 510.4021666666667 C 721.3403333333334 509.36466666666666 723.1586666666667 508.34633333333335 724.75 507.6308333333333 C 726.3413333333333 506.9153333333333 727.7056666666667 506.5026666666666 729.1203333333333 506.31016666666665 C 730.535 506.1176666666667 732 506.1453333333333 732.9498333333335 505.93716666666666 C 733.8996666666667 505.729 734.3343333333333 505.285 734.4015 504.7346666666667 C 734.4686666666666 504.1843333333333 734.1683333333334 503.5276666666667 733.4791666666666 502.59933333333333 C 732.79 501.671 731.712 500.471 730.1405 499.162 C 728.569 497.853 726.5039999999999 496.435 724.6478333333333 495.1276666666667 C 722.7916666666666 493.82033333333334 721.1443333333333 492.6236666666667 718.9446666666666 491.6786666666667 C 716.7449999999999 490.7336666666667 713.9929999999999 490.04033333333336 710.9081666666666 489.33133333333336 C 707.8233333333334 488.6223333333333 704.4056666666667 487.8976666666667 700.8523333333334 487.42049999999995 C 697.299 486.9433333333333 693.61 486.7136666666667 690.5898333333334 486.3573333333333 C 687.5696666666666 486.001 685.2183333333332 485.51800000000003 683.158 485.0261666666667 C 681.0976666666667 484.53433333333334 679.3283333333333 484.0336666666667 668.8568333333334 491.53883333333334 C 658.3853333333333 499.04400000000004 639.2116666666667 514.555 629.2121666666667 523.0188333333334 C 619.2126666666667 531.4826666666667 618.3873333333333 532.8993333333334 618.3829999999999 533.9309999999999 C 618.3786666666666 534.9626666666667 619.1953333333332 535.6093333333333 619.6036666666665 535.9326666666667 C 620.012 536.256 620.012 536.256 620.0119999999998 536.256 C 620.012 536.256 620.012 536.256 620.7828333333332 536.4174999999999" bx:d="M 620.012 536.256 U 624.637 537.225 U 633.75 536.748 U 645.452 535.622 U 659.84 532.871 U 672.674 529.736 U 684.645 525.195 U 699.261 517.557 U 709.837 513.553 U 719.522 510.383 U 724.977 507.328 U 729.07 506.09 U 733.465 506.173 U 734.769 504.841 U 733.868 502.871 U 730.634 499.271 U 724.439 495.017 U 719.497 491.427 U 711.241 489.347 U 700.988 487.173 U 689.921 486.484 U 682.867 485.035 U 677.559 483.533 U 620.038 530.066 U 617.562 534.316 U 620.012 536.256 U 620.012 536.256 Z 1@1b7629de"/>
    <path style="stroke: rgb(0, 0, 0); stroke-width: 0px; fill: rgba(0, 0, 0, 0.08);" d="M 615.602 531.395 C 615.959 528.562 616.6729999999999 522.8960000000001 617.7026666666666 517.3771666666667 C 618.7323333333333 511.85833333333335 620.0776666666667 506.4866666666667 621.9648333333333 500.98600000000005 C 623.852 495.48533333333336 626.2810000000001 489.85566666666665 629.0445 484.6513333333334 C 631.808 479.44699999999995 634.9060000000001 474.66799999999995 638.9823333333334 469.4881666666667 C 643.0586666666667 464.30833333333334 648.1133333333333 458.72766666666666 652.492 453.93499999999995 C 656.8706666666667 449.1423333333333 660.5733333333333 445.1376666666667 664.8296666666666 440.7165 C 669.0859999999999 436.2953333333333 673.8960000000001 431.4576666666667 678.6898333333334 426.6313333333333 C 683.4836666666666 421.805 688.2613333333334 416.99 692.6413333333334 413.20450000000005 C 697.0213333333332 409.41900000000004 701.0036666666666 406.663 705.4305 403.77849999999995 C 709.8573333333334 400.894 714.7286666666668 397.88100000000003 718.7831666666666 395.3111666666666 C 722.8376666666667 392.74133333333333 726.0753333333333 390.61466666666666 729.4581666666667 388.85816666666665 C 732.841 387.1016666666667 736.369 385.7153333333333 739.44 384.58050000000003 C 742.5110000000001 383.4456666666667 745.125 382.5623333333333 747.303 381.87399999999997 C 749.4810000000001 381.1856666666667 751.223 380.69233333333335 752.094 380.4456666666667 C 752.965 380.199 752.965 380.199 752.965 380.199 C 752.965 380.199 752.965 380.199 752.6081666666668 381.1016666666667 C 752.2513333333333 382.0043333333333 751.5376666666666 383.8096666666667 750.2145 386.39433333333335 C 748.8913333333334 388.979 746.9586666666665 392.343 743.9326666666666 396.9305 C 740.9066666666666 401.51800000000003 736.7873333333333 407.329 733.4583333333334 412.03933333333333 C 730.1293333333333 416.74966666666666 727.5906666666666 420.3593333333333 724.015 425.1288333333334 C 720.4393333333334 429.8983333333333 715.8266666666667 435.82766666666663 710.2073333333334 443.3008333333333 C 704.5880000000001 450.77400000000006 697.962 459.791 692.9805 466.7765 C 687.9990000000001 473.762 684.6619999999999 478.71600000000007 681.3598333333334 484.0428333333334 C 678.0576666666667 489.36966666666666 674.7903333333334 495.06933333333336 671.5773333333334 499.5806666666667 C 668.3643333333333 504.09200000000004 665.2056666666667 507.41499999999996 661.1621666666666 511.27116666666666 C 657.1186666666666 515.1273333333334 652.1903333333333 519.5166666666667 645.9475 523.3078333333333 C 639.7046666666666 527.099 632.1473333333333 530.292 626.8111666666667 532.0123333333333 C 621.475 533.7326666666667 618.36 533.9803333333333 616.8025 534.1041666666666 C 615.245 534.228 615.245 534.228 615.245 534.228 C 615.245 534.228 615.245 534.228 615.602 531.395" bx:d="M 615.245 534.228 U 617.387 517.23 U 621.423 501.115 U 628.71 484.226 U 638.004 469.889 U 653.168 453.147 U 664.276 441.133 U 678.706 426.62 U 693.039 412.175 U 704.986 403.907 U 719.6 394.868 U 729.313 388.488 U 739.897 384.329 U 747.739 381.679 U 752.965 380.199 U 752.965 380.199 U 752.965 380.199 U 750.824 385.615 U 745.026 395.707 U 732.668 413.14 U 725.052 423.969 U 711.214 441.757 U 691.336 468.808 U 681.325 483.67 U 671.523 500.769 U 662.047 510.738 U 647.262 523.906 U 624.59 533.485 U 615.245 534.228 U 615.245 534.228 Z 1@8f642c19"/>
    <path d="M 92.772 0 L 641.247 0 L 684.119 42.872 L 684.119 160.909 C 720.74 164.484 749.358 195.359 749.358 232.919 C 749.358 270.479 720.74 301.354 684.119 304.929 L 684.119 775 L 132.45 775 L 92.772 735.322 Z" style="fill: rgba(0, 0, 0, 0.08); stroke: rgba(0, 0, 0, 0.675); stroke-width: 0px;"/>
  </g>
  <g id="colors-top-right" style="">
    <rect x="121.759" y="31.69" width="322.33" height="627.901" style="stroke: rgb(0, 0, 0); stroke-width: 0px; fill: rgb(142, 195, 190);"/>
    <rect x="138.416" y="43.341" width="470.424" height="635.678" style="stroke: rgb(0, 0, 0); stroke-width: 0px; fill: rgb(151, 213, 209);"/>
    <rect x="276.769" y="298.935" width="348.538" height="417.077" style="stroke: rgb(0, 0, 0); stroke-width: 0px; fill: rgb(254, 248, 240);"/>
    <ellipse style="stroke: rgb(0, 0, 0); stroke-width: 0px; fill: rgb(255, 255, 255);" cx="385.236" cy="190.385" rx="134.125" ry="134.125"/>
    <rect x="514.107" y="113.205" width="107.521" height="160.588" style="stroke: rgb(151, 213, 209); stroke-width: 0px; fill: rgb(151, 213, 209);"/>
    <rect x="482.643" y="401.412" width="130.054" height="16.94" style="stroke: rgb(0, 0, 0); stroke-width: 0px; fill: rgb(254, 248, 240);"/>
    <path d="M 479.695 419.536 L 611.58 419.536 L 611.58 434.994 L 494.272 434.994 L 479.769 420.491 L 479.695 420.565 Z" style="stroke: rgb(0, 0, 0); stroke-width: 0px; fill: rgb(247, 231, 219);"/>
    <rect x="-625.477" y="571.982" width="351.687" height="15.213" style="stroke: rgb(0, 0, 0); stroke-width: 0px; fill: rgb(170, 196, 231);" transform="matrix(-1, 0, 0, 1, 0, 0)"/>
    <rect x="121.94" y="483.392" width="154.79" height="121.698" style="stroke: rgb(0, 0, 0); stroke-width: 0px; fill: rgb(245, 197, 6);"/>
    <rect x="-359.489" y="483.45" width="89.418" height="89.682" style="stroke: rgb(0, 0, 0); stroke-width: 0px; fill: rgb(56, 52, 48);" transform="matrix(-1, 0, 0, 1, 0, 0)"/>
    <path d="M 353.602 604.323 L 496.376 604.323 L 512.288 620.235 L 513.596 618.927 L 513.596 717.4 L 353.602 717.4 Z" style="stroke: rgb(0, 0, 0); stroke-width: 0px; fill: rgb(247, 231, 219);"/>
    <rect x="276.376" y="604.416" width="220.133" height="113.077" style="stroke: rgb(0, 0, 0); stroke-width: 0px; fill: rgb(252, 213, 1);"/>
    <rect x="444.69" y="272.676" width="169.252" height="128.433" style="stroke: rgb(0, 0, 0); stroke-width: 0px; fill: rgb(252, 213, 1);"/>
    <path d="M 614.426 29.252 L 614.426 113.971 L 513.258 113.971 L 513.258 309.699 L 445.04 309.699 L 445.04 28.25 L 513.258 28.25 L 513.258 29.252 Z" style="stroke: rgb(0, 0, 0); stroke-width: 0px; fill: rgb(254, 248, 240);"/>
    <rect x="445.086" y="31.683" width="170.096" height="11.782" style="stroke: rgb(0, 0, 0); stroke-width: 0px; fill: rgb(247, 231, 219);"/>
  </g>
  <g id="main-image-parts" style="">
    <ellipse style="stroke: rgb(0, 0, 0); stroke-width: 0px; fill: rgb(252, 213, 1);" cx="385.614" cy="190.485" rx="72.783" ry="72.046"/>
  </g>
  <g id="lines-top-right" style="">
    <path style="stroke: rgb(56, 52, 48); stroke-width: 3px; fill: rgba(216, 216, 216, 0);" d="M 403.692 669.837 L 403.638 646.797 C 403.585 623.757 403.477 577.678 421.979 554.533 C 440.48 531.387 477.591 531.177 496.146 531.071 L 514.701 530.966" bx:d="M 403.692 669.837 U 403.37 531.598 U 514.701 530.966 1@d3eaf7d8"/>
    <line style="fill: rgb(216, 216, 216); stroke: rgb(56, 52, 48); stroke-width: 4px; transform-box: fill-box; transform-origin: 50% 50%;" x1="479.664" y1="418.538" x2="615.408" y2="418.553" transform="matrix(-1, 0, 0, -1, -0.000018, 0.000019)"/>
    <line style="fill: rgb(216, 216, 216); stroke: rgb(56, 52, 48); transform-origin: 481.957px 235.034px; stroke-width: 4px;" x1="481.669" y1="419.596" x2="482.243" y2="50.48" transform="matrix(-1, 0, 0, -1, -0.000016, 0)"/>
    <line style="fill: rgb(216, 216, 216); stroke-width: 2px; stroke: rgb(56, 52, 48); transform-origin: 444.401px 212.155px;" x1="444.106" y1="400.973" x2="444.694" y2="23.345" transform="matrix(-1, 0, 0, -1, -0.000004, -0.000012)"/>
    <line style="fill: rgb(216, 216, 216); stroke-width: 3px; stroke: rgb(56, 52, 48);" x1="406.238" y1="226.687" x2="546.706" y2="226.702"/>
    <line style="fill: rgb(216, 216, 216); stroke-width: 2px; stroke: rgb(56, 52, 48);" x1="443.164" y1="401.17" x2="623.031" y2="401.19"/>
    <line style="fill: rgb(216, 216, 216); stroke: rgb(56, 52, 48); stroke-width: 4px; transform-origin: 545.137px 467.803px;" x1="544.756" y1="710.407" x2="545.511" y2="225.211" transform="matrix(-1, 0, 0, -1, -0.00005, -0.000012)"/>
    <line style="fill: rgb(216, 216, 216); stroke: rgb(56, 52, 48); stroke-width: 4px; transform-origin: 576.533px 493.79px;" x1="576.185" y1="715.426" x2="576.875" y2="272.166" transform="matrix(-1, 0, 0, -1, -0.00005, -0.000009)"/>
    <line style="fill: rgb(216, 216, 216); stroke-width: 3px; stroke: rgb(56, 52, 48);" x1="432.932" y1="273.365" x2="626.625" y2="273.385"/>
    <line style="fill: rgb(216, 216, 216); stroke-width: 3px; stroke: rgb(56, 52, 48);" x1="480.269" y1="51.984" x2="620.737" y2="51.999"/>
    <line style="fill: rgb(216, 216, 216); stroke: rgb(56, 52, 48); stroke-width: 3px; transform-origin: 513.192px 253.024px;" x1="512.934" y1="418.361" x2="513.448" y2="87.695" transform="matrix(-1, 0, 0, -1, -0.000044, 0.000003)"/>
    <line style="fill: rgb(216, 216, 216); stroke-width: 3px; stroke: rgb(56, 52, 48);" x1="512.019" y1="88.154" x2="614.705" y2="88.165"/>
    <line style="fill: rgb(216, 216, 216); stroke: rgb(56, 52, 48); stroke-width: 2px;" x1="513.237" y1="113.76" x2="615.923" y2="113.771"/>
    <line style="fill: rgb(216, 216, 216); stroke: rgb(56, 52, 48); stroke-width: 4px; transform-origin: 513.546px 621.618px;" x1="513.404" y1="711.87" x2="513.685" y2="531.369" transform="matrix(-1, 0, 0, -1, -0.000053, 0.000048)"/>
    <line style="stroke: rgb(56, 52, 48); fill: rgba(216, 216, 216, 0); stroke-width: 3px; transform-origin: 567.41px 530.962px;" x1="513.922" y1="530.956" x2="620.898" y2="530.968" transform="matrix(-1, 0, 0, -1, 0.000057, 0.000051)"/>
    <path style="stroke: rgb(0, 0, 0); fill: rgba(216, 216, 216, 0); stroke-width: 3px;" d="M 418.001 311.222 L 420.4068333333334 313.84816666666666 C 422.81266666666664 316.47433333333333 427.62433333333337 321.72666666666663 430.33166666666665 328.23016666666666 C 433.039 334.7336666666667 433.642 342.4883333333333 433.7736666666667 351.83183333333335 C 433.9053333333333 361.17533333333336 433.5656666666667 372.1076666666667 433.52833333333336 384.67616666666663 C 433.491 397.24466666666666 433.75600000000003 411.4493333333333 434.4455 420.9936666666667 C 435.135 430.538 436.249 435.422 438.7095 441.5826666666666 C 441.17 447.74333333333334 444.97700000000003 455.18066666666664 450.04099999999994 461.8284999999999 C 455.105 468.47633333333334 461.426 474.33466666666664 466.98499999999996 478.9935 C 472.54400000000004 483.6523333333333 477.34099999999995 487.1116666666667 483.24766666666665 489.82633333333325 C 489.15433333333334 492.541 496.17066666666665 494.51099999999997 502.7606666666666 495.76783333333333 C 509.3506666666667 497.0246666666667 515.5143333333334 497.5683333333333 522.3870000000001 497.9638333333333 C 529.2596666666667 498.3593333333333 536.8413333333333 498.6066666666666 542.9551666666666 498.1961666666666 C 549.069 497.78566666666666 553.715 496.71733333333333 559.2601666666667 495.65883333333335 C 564.8053333333334 494.6003333333333 571.2496666666666 493.5516666666667 574.4718333333333 493.0273333333334 L 577.694 492.503" bx:d="M 418.001 311.222 U 432.436 326.979 U 434.245 350.243 U 433.226 383.04 U 434.021 425.654 U 437.363 440.306 U 448.784 462.618 U 467.747 480.193 U 482.138 490.571 U 503.187 496.481 U 521.678 498.112 U 544.423 498.854 U 558.361 495.649 U 577.694 492.503 1@1b1a4348"/>
    <line style="fill: rgb(216, 216, 216); stroke: rgb(56, 52, 48); stroke-width: 2px;" x1="444.021" y1="309.684" x2="512.861" y2="309.691"/>
  </g>
  <g id="in-leaf" style="">
    <path style="stroke: rgb(0, 0, 0); stroke-width: 0px; fill: rgb(243, 252, 251);" d="M 159.5825 477.43416666666667 C 161.038 475.1023333333333 163.949 470.4386666666667 167.32583333333335 462.54383333333334 C 170.7026666666667 454.64899999999994 174.54533333333333 443.52299999999997 179.235 430.70716666666664 C 183.92466666666667 417.8913333333333 189.46133333333333 403.3856666666666 197.05949999999999 387.9253333333333 C 204.65766666666664 372.465 214.31733333333332 356.05 228.1963333333333 340.32 C 242.07533333333333 324.59 260.17366666666663 309.545 285.50683333333336 299.51233333333334 C 310.84 289.4796666666667 343.40799999999996 284.45933333333335 357.00966666666665 280.8233333333333 C 370.61133333333333 277.18733333333336 365.24666666666667 274.9356666666667 360.1746666666666 273.175 C 355.10266666666666 271.41433333333333 350.3233333333333 270.14466666666664 344.69166666666666 269.11833333333334 C 339.06 268.09200000000004 332.57599999999996 267.309 326.1278333333333 267.06166666666667 C 319.67966666666666 266.8143333333333 313.26733333333334 267.10266666666666 307.15766666666667 267.7256666666667 C 301.048 268.3486666666667 295.24100000000004 269.3063333333334 288.9485 270.8641666666667 C 282.656 272.422 275.878 274.58 269.54133333333334 277.3088333333333 C 263.2046666666667 280.03766666666667 257.3093333333333 283.33733333333333 251.10333333333332 287.0308333333333 C 244.89733333333334 290.72433333333333 238.38066666666668 294.81166666666667 232.45149999999998 299.441 C 226.52233333333334 304.07033333333334 221.18066666666667 309.2416666666667 216.5145 314.8668333333333 C 211.84833333333333 320.492 207.85766666666666 326.57099999999997 203.81500000000003 333.68399999999997 C 199.77233333333334 340.79699999999997 195.67766666666668 348.94399999999996 192.09416666666667 356.511 C 188.51066666666668 364.078 185.43833333333336 371.06500000000005 182.67783333333333 377.9493333333333 C 179.91733333333335 384.83366666666666 177.46866666666668 391.61533333333335 175.34366666666668 398.3253333333333 C 173.21866666666668 405.0353333333333 171.41733333333335 411.67366666666663 169.61950000000002 418.05199999999996 C 167.8216666666667 424.4303333333333 166.02733333333333 430.54866666666663 164.56066666666666 436.3996666666667 C 163.09400000000002 442.25066666666663 161.955 447.8343333333333 160.84866666666667 454.29466666666667 C 159.74233333333333 460.75499999999994 158.66866666666667 468.0919999999999 158.22050000000002 472.48333333333335 C 157.77233333333334 476.87466666666666 157.94966666666667 478.32033333333334 158.03833333333333 479.04316666666665 C 158.127 479.766 158.127 479.766 158.12699999999998 479.766 C 158.127 479.766 158.127 479.766 159.5825 477.43416666666667" bx:d="M 158.127 479.766 U 166.86 465.775 U 178.388 432.397 U 194.998 388.88 U 223.977 339.635 U 278.272 294.5 U 375.976 279.439 U 359.882 272.684 U 345.544 268.875 U 326.092 266.526 U 306.855 267.391 U 289.434 270.264 U 269.1 276.738 U 251.414 286.637 U 231.864 298.899 U 215.839 314.413 U 203.867 332.65 U 191.583 357.091 U 182.366 378.052 U 175.02 398.397 U 169.616 418.312 U 164.233 436.667 U 160.816 453.418 U 157.595 475.429 U 158.127 479.766 U 158.127 479.766 Z 1@179fd464"/>
    <path style="stroke: rgb(0, 0, 0); stroke-width: 0px; fill: rgb(151, 213, 209);" d="M 276.66350000000006 483.0926666666667 C 276.68800000000005 482.5683333333333 276.737 481.51966666666664 276.8685 479.16533333333336 C 277 476.811 277.214 473.151 277.72583333333336 468.6265 C 278.23766666666666 464.10200000000003 279.04733333333337 458.713 280.165 453.05333333333334 C 281.28266666666667 447.39366666666666 282.7083333333333 441.46333333333337 284.71183333333335 435.00966666666665 C 286.7153333333333 428.55600000000004 289.2966666666667 421.579 292.09183333333334 415.1988333333333 C 294.887 408.8186666666666 297.89599999999996 403.0353333333333 301.1663333333333 397.09516666666667 C 304.43666666666667 391.15500000000003 307.9683333333333 385.058 312.508 379.09933333333333 C 317.04766666666666 373.1406666666667 322.5953333333333 367.32033333333334 329.1235 361.3881666666667 C 335.65166666666664 355.45599999999996 343.1603333333333 349.412 350.597 344.066 C 358.03366666666665 338.71999999999997 365.3983333333333 334.07199999999995 372.94616666666667 330.1121666666666 C 380.49399999999997 326.1523333333333 388.22499999999997 322.8806666666666 395.7416666666666 319.9871666666666 C 403.2583333333334 317.09366666666665 410.5606666666667 314.5783333333333 415.7328333333333 313.2608333333333 C 420.905 311.9433333333333 423.94699999999995 311.82366666666667 424.0913333333333 310.7536666666667 C 424.23566666666665 309.6836666666666 421.4823333333333 307.66333333333336 418.25649999999996 305.3548333333333 C 415.0306666666667 303.0463333333333 411.33233333333334 300.44966666666664 407.1675 297.53566666666666 C 403.0026666666667 294.62166666666667 398.3713333333333 291.39033333333333 393.68833333333333 288.519 C 389.00533333333334 285.6476666666667 384.2706666666666 283.1363333333333 379.0845 281.1711666666667 C 373.8983333333333 279.20599999999996 368.2606666666666 277.787 363.3256666666667 276.7751666666666 C 358.3906666666667 275.7633333333333 354.1583333333333 275.15866666666665 348.833 274.57216666666665 C 343.50766666666664 273.98566666666665 337.08933333333334 273.4173333333333 330.8831666666667 273.38266666666664 C 324.67699999999996 273.348 318.683 273.847 313.04783333333336 274.546 C 307.41266666666667 275.245 302.13633333333337 276.144 297.2968333333334 277.1226666666667 C 292.45733333333334 278.10133333333334 288.05466666666666 279.1596666666667 283.3378333333333 280.9241666666667 C 278.62100000000004 282.6886666666667 273.59 285.15933333333334 268.3066666666667 287.97933333333333 C 263.02333333333337 290.7993333333333 257.48766666666666 293.96866666666665 252.47616666666667 297.1923333333333 C 247.46466666666666 300.416 242.97733333333335 303.69399999999996 238.2645 307.63216666666665 C 233.55166666666665 311.57033333333334 228.61333333333334 316.16866666666664 223.85316666666668 321.44350000000003 C 219.093 326.7183333333333 214.511 332.66966666666667 209.907 340.0973333333333 C 205.303 347.52500000000003 200.677 356.42900000000003 196.2943333333333 365.542 C 191.91166666666666 374.65500000000003 187.77233333333334 383.97700000000003 183.76733333333334 394.0826666666667 C 179.76233333333334 404.18833333333333 175.89166666666665 415.07766666666663 172.49433333333332 425.5578333333333 C 169.09699999999998 436.038 166.173 446.109 163.71916666666667 455.55199999999996 C 161.26533333333333 464.99500000000006 159.28166666666667 473.81 158.28983333333335 478.2175 C 157.298 482.625 157.298 482.625 157.298 482.625 C 157.298 482.625 157.298 482.625 177.18816666666666 482.79033333333336 C 197.07833333333335 482.9556666666667 236.85866666666666 483.2863333333333 256.7488333333333 483.45166666666665 C 276.639 483.617 276.639 483.617 276.63900000000007 483.617 C 276.639 483.617 276.639 483.617 276.66350000000006 483.0926666666667" bx:d="M 276.639 483.617 U 276.786 480.471 U 277.428 469.491 U 279.857 453.324 U 284.134 435.533 U 291.878 414.602 U 300.905 397.252 U 311.5 378.961 U 328.143 361.5 U 350.669 343.368 U 372.763 329.424 U 395.956 319.609 U 417.863 312.063 U 426.989 311.704 U 418.729 305.643 U 407.634 297.853 U 393.74 288.159 U 379.536 280.625 U 362.623 276.368 U 349.926 274.554 U 330.671 272.849 U 312.689 274.346 U 296.86 277.043 U 283.652 280.218 U 268.559 287.63 U 251.952 297.138 U 238.49 306.972 U 223.675 320.767 U 209.929 338.621 U 196.051 365.333 U 183.633 393.299 U 172.021 425.967 U 163.249 456.18 U 157.298 482.625 U 157.298 482.625 U 157.298 482.625 U 276.639 483.617 U 276.639 483.617 Z 1@8101fa89"/>
    <path style="stroke: rgb(0, 0, 0); stroke-width: 0px; fill: rgb(141, 194, 189);" d="M 208.4908333333333 384.8703333333333 C 208.48566666666667 381.96166666666664 208.47533333333334 376.14433333333335 209.657 371.1893333333333 C 210.83866666666668 366.2343333333333 213.21233333333336 362.14166666666665 216.326 357.828 C 219.43966666666665 353.5143333333333 223.29333333333332 348.9796666666666 227.7085 344.4285 C 232.12366666666665 339.87733333333335 237.1003333333333 335.3096666666667 241.45516666666666 331.6956666666667 C 245.81000000000003 328.0816666666667 249.543 325.4213333333334 253.42566666666667 322.81533333333334 C 257.30833333333334 320.20933333333335 261.34066666666666 317.65766666666667 265.37 315.43016666666665 C 269.39933333333335 313.20266666666663 273.4256666666667 311.2993333333333 278.06533333333334 309.735 C 282.705 308.1706666666667 287.958 306.94533333333334 288.93233333333336 308.4365 C 289.9066666666667 309.9276666666667 286.6023333333333 314.13533333333334 282.9483333333333 318.6335 C 279.2943333333333 323.13166666666666 275.29066666666665 327.9203333333333 271.2515 332.0271666666667 C 267.21233333333333 336.134 263.1376666666667 339.55899999999997 259.73949999999996 342.646 C 256.34133333333335 345.733 253.61966666666663 348.48199999999997 251.02683333333334 351.11816666666664 C 248.434 353.7543333333333 245.97 356.2776666666667 242.57399999999998 359.10366666666664 C 239.178 361.92966666666666 234.85 365.05833333333334 229.01500000000001 369.888 C 223.17999999999998 374.7176666666667 215.838 381.2483333333333 212.16700000000003 384.51366666666667 C 208.496 387.779 208.496 387.779 208.496 387.779 C 208.496 387.779 208.496 387.779 208.4908333333333 384.8703333333333" bx:d="M 208.496 387.779 U 208.465 370.327 U 215.586 358.049 U 227.147 344.445 U 242.077 330.742 U 253.276 322.761 U 265.373 315.106 U 277.452 309.396 U 293.211 305.72 U 283.298 318.343 U 271.287 332.709 U 259.063 342.984 U 250.898 351.231 U 243.506 358.801 U 230.522 368.187 U 208.496 387.779 U 208.496 387.779 Z 1@b4972eb6"/>
    <path style="stroke: rgb(0, 0, 0); stroke-width: 0px; fill: rgb(56, 52, 48);" d="M 157.425 474.997 C 159.622 470.404 164.015 461.219 171.171 449.922 C 178.327 438.624 188.246 425.215 200.012 411.672 C 211.779 398.129 225.395 384.454 241.376 372.403 C 257.358 360.351 275.705 349.925 287.55 343.313 C 299.395 336.702 304.737 333.905 308.2 331.584 C 311.663 329.262 313.247 327.416 314.039 326.492 C 314.831 325.569 314.831 325.569 314.831 325.569 C 314.831 325.569 314.831 325.569 312.104 326.272 C 309.378 326.975 303.924 328.382 298.575 330.099 C 293.226 331.816 287.981 333.844 282.296 336.247 C 276.611 338.65 270.487 341.429 264.168 344.748 C 257.85 348.067 251.338 351.927 245.467 355.9 C 239.597 359.873 234.368 363.96 229.768 367.724 C 225.167 371.489 221.196 374.931 217.24 378.692 C 213.285 382.452 209.345 386.529 205.595 390.517 C 201.845 394.504 198.285 398.4 194.64 402.812 C 190.996 407.223 187.268 412.15 183.737 417.154 C 180.207 422.158 176.874 427.24 173.839 432.502 C 170.805 437.763 168.068 443.205 165.872 448.126 C 163.676 453.048 162.02 457.449 160.336 462.607 C 158.652 467.764 156.94 473.676 156.084 476.633 C 155.228 479.589 155.228 479.589 155.228 479.589 C 155.228 479.589 155.228 479.589 157.425 474.997" bx:d="M 155.228 479.589 U 168.409 452.034 U 198.164 411.805 U 239.01 370.778 U 294.053 339.498 U 310.079 331.109 U 314.831 325.569 U 314.831 325.569 U 314.831 325.569 U 298.471 329.788 U 282.736 335.872 U 264.362 344.207 U 244.826 355.787 U 229.139 368.046 U 217.224 378.374 U 205.406 390.607 U 194.724 402.297 U 183.54 417.076 U 173.541 432.322 U 165.332 448.646 U 160.364 461.851 U 155.228 479.589 U 155.228 479.589 Z 1@4b1717a3"/>
    <path style="stroke: rgb(0, 0, 0); stroke-width: 0px; fill: rgb(252, 213, 1);" d="M 159.747 476.367 C 161.84 472.398 166.026 464.461 175.903 452.463 C 185.78 440.466 201.349 424.408 218.334 409.553 C 235.319 394.697 253.72 381.043 271.619 370.085 C 289.517 359.128 306.912 350.866 320.73 344.897 C 334.548 338.927 344.788 335.248 351.145 332.837 C 357.501 330.425 359.972 329.279 361.715 328.38 C 363.458 327.48 364.471 326.826 364.722 326.127 C 364.972 325.427 364.459 324.683 362.68 324.405 C 360.901 324.127 357.855 324.316 353.995 324.444 C 350.134 324.571 345.457 324.638 340.002 324.803 C 334.547 324.969 328.313 325.234 323.954 325.574 C 319.595 325.914 317.11 326.328 313.559 327.322 C 310.008 328.316 305.389 329.889 300.728 331.586 C 296.066 333.282 291.36 335.103 286.319 337.338 C 281.278 339.574 275.9 342.224 270.866 344.855 C 265.832 347.485 261.14 350.096 256.46 352.917 C 251.78 355.739 247.112 358.771 242.447 362.082 C 237.782 365.393 233.121 368.981 228.5 373.126 C 223.88 377.271 219.299 381.972 214.199 387.227 C 209.099 392.483 203.48 398.292 198.728 403.826 C 193.976 409.361 190.091 414.619 186.376 419.643 C 182.661 424.666 179.115 429.454 175.978 434.335 C 172.842 439.216 170.114 444.19 167.911 448.96 C 165.707 453.731 164.028 458.297 162.575 462.633 C 161.123 466.97 159.898 471.075 159.116 473.987 C 158.333 476.899 157.994 478.618 157.824 479.477 C 157.654 480.336 157.654 480.336 157.654 480.336 C 157.654 480.336 157.654 480.336 159.747 476.367" bx:d="M 157.654 480.336 U 170.212 456.523 U 216.917 408.351 U 272.122 367.389 U 324.307 342.605 U 355.029 331.57 U 362.444 328.134 U 365.485 326.172 U 363.946 323.938 U 354.81 324.505 U 340.781 324.704 U 322.079 325.499 U 314.626 326.743 U 300.771 331.462 U 286.655 336.923 U 270.523 344.875 U 256.449 352.706 U 242.443 361.804 U 228.46 372.57 U 214.719 386.673 U 197.86 404.102 U 186.207 419.878 U 175.569 434.242 U 167.387 449.164 U 162.348 462.864 U 158.673 475.181 U 157.654 480.336 U 157.654 480.336 Z 1@b47653d9"/>
    <path style="stroke: rgb(0, 0, 0); stroke-width: 0px; fill: rgb(245, 197, 6);" d="M 161.731 476.605 C 167.524 471.316 179.108 460.739 200.616 443.041 C 222.124 425.342 253.555 400.524 277.9 383.122 C 302.245 365.721 319.503 355.736 332.457 348.523 C 345.41 341.309 354.059 336.865 358.915 333.452 C 363.771 330.038 364.835 327.653 361.982 327.466 C 359.129 327.279 352.358 329.288 343.286 332.527 C 334.213 335.765 322.839 340.231 312.198 344.809 C 301.557 349.387 291.651 354.077 281.708 359.371 C 271.765 364.666 261.786 370.566 253.327 376.38 C 244.868 382.195 237.929 387.923 230.711 394.234 C 223.494 400.544 215.997 407.436 207.846 415.802 C 199.695 424.168 190.889 434.007 183.598 442.77 C 176.307 451.533 170.532 459.22 166.174 465.561 C 161.817 471.902 158.878 476.898 157.408 479.396 C 155.939 481.894 155.939 481.894 155.939 481.894 C 155.939 481.894 155.939 481.894 161.731 476.605" bx:d="M 155.939 481.894 U 190.693 450.161 U 284.986 375.705 U 336.762 345.752 U 362.707 332.422 U 365.899 325.269 U 345.588 331.298 U 311.464 344.698 U 281.744 358.766 U 251.807 376.466 U 230.99 393.652 U 208.501 414.328 U 182.083 443.847 U 164.756 466.906 U 155.939 481.894 U 155.939 481.894 Z 1@47cc744c"/>
    <path style="stroke: rgb(0, 0, 0); stroke-width: 0px; fill: rgb(142, 195, 190);" d="M 158.472 481.938 C 158.472 481.938 158.472 481.938 159.545 479.705 C 160.619 477.471 162.765 473.004 166.316 468.096 C 169.866 463.187 174.821 457.838 179.733 452.463 C 184.644 447.088 189.514 441.688 194.281 436.896 C 199.049 432.105 203.714 427.921 208.891 423.092 C 214.068 418.263 219.755 412.787 225.629 407.714 C 231.503 402.641 237.563 397.971 243.843 393.621 C 250.122 389.271 256.621 385.241 263.729 381.011 C 270.837 376.78 278.555 372.347 286.054 368.119 C 293.553 363.891 300.834 359.866 308.351 356.135 C 315.867 352.404 323.619 348.966 330.335 346.126 C 337.051 343.285 342.732 341.042 348.287 338.233 C 353.842 335.424 359.272 332.048 362.167 332.468 C 363.382 332.644 364.151 333.489 364.047 335.103 L 350.746 343.498 L 328.22 361.63 L 311.577 379.091 L 305.969 388.772 C 304.557 389.414 303.215 389.995 301.843 390.639 C 296.458 393.167 290.604 396.668 283.681 401.536 C 276.759 406.404 268.768 412.639 261.642 418.018 C 254.515 423.397 248.253 427.92 241.99 432.551 C 235.727 437.181 229.465 441.921 223.422 446.554 C 217.38 451.187 211.557 455.715 206.579 459.677 C 201.601 463.64 197.466 467.038 193.943 470.148 C 190.42 473.258 187.507 476.081 185.633 478.189 C 183.759 480.296 182.922 481.69 182.504 482.386 C 182.32 482.693 182.217 482.865 182.159 482.961 L 179.037 482.935 C 178.766 482.922 178.471 482.908 178.15 482.892 C 174.215 482.701 166.343 482.32 162.408 482.129 C 158.472 481.938 158.472 481.938 158.472 481.938 Z"/>
  </g>
  <g id="lines-bottom-left" style="">
    <rect x="138.412" y="483.466" width="138.381" height="121.698" style="stroke: rgb(0, 0, 0); stroke-width: 0px; fill: rgb(252, 213, 1);"/>
    <rect x="183.176" y="70.353" width="51.808" height="89.252" style="fill: rgb(252, 213, 1); stroke-width: 0px; stroke: rgb(56, 52, 48);"/>
    <path d="M 209.729 159.122 L 222.079 172.655 L 197.379 172.655 L 209.729 159.122 Z" style="stroke-width: 0px; fill: rgb(252, 213, 1); transform-box: fill-box; transform-origin: 50% 50%; stroke: rgb(56, 52, 48);" transform="matrix(-1, 0, 0, -1, 0, 0)" bx:shape="triangle 197.379 159.122 24.7 13.533 0.5 0 1@d6bb456f"/>
    <path d="M 222.988 95.852 C 222.988 104.755 215.771 111.972 206.868 111.972 C 199.879 111.972 193.929 107.525 191.694 101.306 C 194.42 103.838 198.045 105.383 202.025 105.383 C 210.495 105.383 217.361 98.387 217.361 89.758 C 217.361 87.019 216.669 84.445 215.454 82.206 C 219.981 85.061 222.988 90.105 222.988 95.852 Z" style="stroke-width: 0px; fill: rgb(245, 197, 6); stroke: rgb(56, 52, 48);"/>
    <path d="M 190.603 95.865 C 190.603 86.962 197.82 79.745 206.723 79.745 C 211.322 79.745 215.471 81.671 218.408 84.76 C 215.658 82.594 212.188 81.301 208.415 81.301 C 199.49 81.301 192.255 88.536 192.255 97.461 C 192.255 101.575 193.792 105.329 196.323 108.182 C 192.825 105.225 190.603 100.804 190.603 95.865 Z" style="stroke-width: 0px; fill: rgb(255, 255, 255); stroke: rgb(56, 52, 48);"/>
    <path style="fill: rgba(216, 216, 216, 0); stroke-width: 2px; transform-box: fill-box; transform-origin: 50% 50%; stroke: rgb(56, 52, 48);" d="M 134.215 139.22 C 154.164 139.22 166.632 161.126 156.657 178.65 C 151.526 187.666 145.026 193.939 134.823 192.821" transform="matrix(0, -1, 1, 0, 0.000021, 0.00002)"/>
    <line style="fill: rgb(216, 216, 216); stroke-width: 2px; transform-origin: 227.622px 456.003px; stroke: rgb(56, 52, 48);" x1="227.244" y1="428.206" x2="227.701" y2="305.82" transform="matrix(-1, 0, 0, -1, 0.000013, 0.000042)"/>
    <line style="fill: rgb(216, 216, 216); stroke-width: 2px; transform-box: fill-box; transform-origin: 50% 50%; stroke: rgb(56, 52, 48);" x1="173.771" y1="245.999" x2="173.929" y2="178.362" transform="matrix(-1, 0, 0, -1, 0, 0)"/>
    <line style="fill: rgb(216, 216, 216); stroke-width: 4px; transform-origin: 155.344px 367.878px; stroke: rgb(56, 52, 48);" x1="154.961" y1="531.627" x2="155.726" y2="204.134" transform="matrix(-1, 0, 0, -1, 0.000023, 0.000018)"/>
    <line style="fill: rgb(216, 216, 216); stroke-width: 4px; transform-origin: 208.416px 388.02px; stroke: rgb(56, 52, 48);" x1="207.908" y1="605.025" x2="208.922" y2="171.024" transform="matrix(-1, 0, 0, -1, -0.000005, 0.000035)"/>
    <line style="fill: rgb(216, 216, 216); stroke-width: 3px; stroke: rgb(56, 52, 48);" x1="153.895" y1="204.992" x2="228.671" y2="205"/>
    <line style="fill: rgb(216, 216, 216); stroke-width: 2px; stroke: rgb(56, 52, 48);" x1="154.93" y1="245.012" x2="174.932" y2="245.02"/>
    <line style="fill: rgb(216, 216, 216); stroke-width: 2px; transform-origin: 227.64px 495.541px; stroke: rgb(56, 52, 48);" x1="227.78" y1="386.382" x2="227.719" y2="345.358" transform="matrix(-1, 0, 0, -1, 0.000039, 0.00003)"/>
    <line style="fill: rgb(216, 216, 216); stroke-width: 2px; transform-origin: 228.073px 237.54px; stroke: rgb(56, 52, 48);" x1="227.994" y1="271.359" x2="228.152" y2="-8.819" transform="matrix(-1, 0, 0, -1, 0.000051, 0.00001)"/>
    <line style="fill: rgb(216, 216, 216); stroke-width: 2px; stroke: rgb(165, 134, 44); transform-origin: 248.512px 455.268px;" x1="248.134" y1="427.471" x2="248.591" y2="305.085" transform="matrix(-1, 0, 0, -1, 0.000001, -0.00001)"/>
  </g>
  <g id="frame" transform="matrix(1.005324, 0, 0, 1, -0.49571, 0)" style="">
    <rect x="236.538" width="32" height="533.622" style="stroke-width: 0px; stroke: rgb(246, 246, 246); transform-box: fill-box; transform-origin: 50% 50%; fill: rgb(63, 61, 63);" y="-245.313" transform="matrix(0, 1, -1, 0, 107.372604, -5.498001)"/>
    <rect x="221.754" width="30" height="533.622" style="stroke-width: 0px; stroke: rgb(246, 246, 246); transform-origin: 236.754px 21.498px; fill: rgb(63, 61, 63);" y="-245.313" transform="matrix(0, 1, -1, 0, 123.156364, 698.502007)"/>
    <rect x="93.1" width="28.548" height="735" style="stroke-width: 0px; stroke: rgb(246, 246, 246); fill: rgb(63, 61, 63);"/>
    <path d="M 93.119 0 L 98.667 0 L 98.667 735 L 93.119 735 L 93.119 0 Z" style="stroke: rgb(0, 0, 0); stroke-width: 0px; fill: rgb(111, 105, 105);"/>
    <rect x="-636.732" width="28.846" height="735" style="stroke-width: 0px; stroke: rgb(246, 246, 246); fill: rgb(63, 61, 63);" transform="matrix(-1, 0, 0, 1, 0, 0)" y="0.013"/>
    <path d="M 630.24 734.938 L 634.219 734.938 L 634.219 -0.062 L 630.24 -0.062 L 630.24 734.938 Z" style="stroke: rgb(0, 0, 0); stroke-width: 0px; fill: rgb(111, 105, 105); transform-box: fill-box; transform-origin: 50% 50%;" transform="matrix(-1, 0, 0, -1, -0.000004, 0.000044)"/>
    <path d="M 634.22 734.939 L 637.801 734.939 L 637.801 -0.061 L 634.22 -0.061 L 634.22 734.939 Z" style="stroke: rgb(0, 0, 0); stroke-width: 0px; transform-origin: 636.01px 367.439px; fill: rgb(63, 61, 63);" transform="matrix(-1, 0, 0, -1, -0.000033, 0.000025)"/>
    <path style="stroke: rgb(0, 0, 0); stroke-width: 0px; fill: rgb(163, 159, 152);" d="M 100.764 2.691 C 106.305 8.746 117.384 20.857 122.924 26.912 C 125.468 29.692 126.843 31.196 127.587 32.009 L 121.648 32.009 L 121.648 34.617 C 120.872 33.797 119.854 32.722 118.518 31.311 C 112.902 25.38 101.669 13.519 96.053 7.588 C 94.817 6.282 93.852 5.263 93.1 4.469 L 93.1 0 L 98.302 0 C 98.969 0.728 99.778 1.614 100.764 2.691 Z"/>
    <path style="stroke: rgb(0, 0, 0); stroke-width: 0px; fill: rgb(163, 159, 152); transform-box: fill-box; transform-origin: 50% 50%;" d="M 609.725 31.926 C 615.532 25.871 627.143 13.76 632.95 7.705 C 635.616 4.925 637.058 3.421 637.837 2.608 L 631.612 2.608 L 631.612 0 C 630.799 0.82 629.732 1.895 628.331 3.306 C 622.446 9.237 610.673 21.098 604.788 27.029 C 603.492 28.335 602.48 29.354 601.692 30.148 L 601.692 34.617 L 607.144 34.617 C 607.844 33.889 608.692 33.003 609.725 31.926 Z" transform="matrix(-1, 0, 0, -1, -0.000007, -0.000009)"/>
    <path style="stroke: rgb(0, 0, 0); stroke-width: 0px; fill: rgb(163, 159, 152);" d="M 100.792 732.326 C 106.333 726.271 117.412 714.16 122.952 708.105 C 125.496 705.325 126.871 703.821 127.615 703.008 L 121.676 703.008 L 121.676 700.4 C 120.9 701.22 119.881 702.295 118.546 703.706 C 112.929 709.637 101.697 721.498 96.081 727.429 C 94.845 728.735 93.88 729.754 93.128 730.548 L 93.128 735.017 L 98.33 735.017 C 98.997 734.289 99.806 733.403 100.792 732.326 Z"/>
    <path style="stroke: rgb(0, 0, 0); stroke-width: 0px; fill: rgb(163, 159, 152); transform-box: fill-box; transform-origin: 50% 50%;" d="M 609.718 704.841 C 615.518 710.557 627.119 721.989 632.919 727.706 C 635.582 730.33 637.023 731.75 637.802 732.518 L 631.583 732.518 L 631.583 734.979 C 630.771 734.205 629.704 733.19 628.306 731.858 C 622.426 726.259 610.665 715.062 604.785 709.464 C 603.49 708.231 602.479 707.269 601.692 706.52 L 601.692 702.3 L 607.139 702.3 C 607.838 702.988 608.685 703.824 609.718 704.841 Z" transform="matrix(-1, 0, 0, -1, 0.000082, -0.000069)"/>
  </g>
  <g id="above-frame" style="">
    <path style="stroke: rgb(0, 0, 0); stroke-width: 0px; fill: rgb(151, 213, 209);" d="M 584.2648333333334 503.55850000000004 C 585.0356666666667 503.71999999999997 586.5773333333333 504.04299999999995 588.8670000000001 504.125 C 591.1566666666666 504.20700000000005 594.1943333333334 504.048 597.6635 503.7808333333333 C 601.1326666666666 503.51366666666667 605.0333333333333 503.1383333333333 609.3816666666667 502.49216666666666 C 613.73 501.846 618.526 500.92900000000003 623.063 499.94800000000004 C 627.6 498.96700000000004 631.878 497.922 636.0121666666666 496.6426666666666 C 640.1463333333332 495.3633333333334 644.1366666666667 493.8496666666667 648.5678333333333 491.8198333333333 C 652.9989999999999 489.78999999999996 657.871 487.24399999999997 662.0696666666666 485.30366666666663 C 666.2683333333333 483.3633333333333 669.7936666666666 482.02866666666665 673.1705 480.833 C 676.5473333333333 479.63733333333334 679.7756666666667 478.5806666666667 682.299 477.54316666666665 C 684.8223333333334 476.5056666666667 686.6406666666667 475.4873333333333 688.232 474.7718333333334 C 689.8233333333333 474.05633333333327 691.1876666666667 473.64366666666666 692.6023333333333 473.45116666666667 C 694.0169999999999 473.25866666666667 695.482 473.2863333333333 696.4318333333334 473.0781666666667 C 697.3816666666667 472.87000000000006 697.8163333333333 472.426 697.8835 471.87566666666675 C 697.9506666666666 471.3253333333334 697.6503333333334 470.6686666666667 696.9611666666666 469.74033333333335 C 696.2719999999999 468.81199999999995 695.194 467.612 693.6225 466.30299999999994 C 692.051 464.99399999999997 689.986 463.576 688.1298333333334 462.26866666666666 C 686.2736666666666 460.96133333333336 684.6263333333333 459.76466666666664 682.4266666666667 458.8196666666666 C 680.227 457.87466666666666 677.475 457.18133333333327 674.3901666666667 456.4723333333333 C 671.3053333333334 455.7633333333333 667.8876666666666 455.03866666666664 664.3343333333333 454.5615 C 660.7810000000001 454.0843333333334 657.092 453.8546666666667 654.0718333333334 453.4983333333333 C 651.0516666666667 453.142 648.7003333333333 452.65899999999993 646.64 452.1671666666666 C 644.5796666666666 451.6753333333333 642.8103333333333 451.1746666666666 632.3388333333334 458.6798333333333 C 621.8673333333334 466.18499999999995 602.6936666666667 481.69599999999997 592.6941666666667 490.1598333333333 C 582.6946666666666 498.6236666666667 581.8693333333333 500.04033333333336 581.865 501.07199999999995 C 581.8606666666666 502.10366666666664 582.6773333333334 502.75033333333334 583.0856666666667 503.07366666666667 C 583.494 503.397 583.494 503.397 583.494 503.397 C 583.494 503.397 583.494 503.397 584.2648333333334 503.55850000000004" bx:d="M 583.494 503.397 U 588.119 504.366 U 597.232 503.889 U 608.934 502.763 U 623.322 500.012 U 636.156 496.877 U 648.127 492.336 U 662.743 484.698 U 673.319 480.694 U 683.004 477.524 U 688.459 474.469 U 692.552 473.231 U 696.947 473.314 U 698.251 471.982 U 697.35 470.012 U 694.116 466.412 U 687.921 462.158 U 682.979 458.568 U 674.723 456.488 U 664.47 454.314 U 653.403 453.625 U 646.349 452.176 U 641.041 450.674 U 583.52 497.207 U 581.044 501.457 U 583.494 503.397 U 583.494 503.397 Z 1@b7ca6041"/>
    <rect x="45.685" y="645.174" width="363.716" height="54.418" style="stroke: rgb(0, 0, 0); stroke-width: 0px; fill: rgb(206, 224, 229);"/>
    <rect x="47.504" y="647.981" width="361.89" height="57" style="stroke: rgb(0, 0, 0); stroke-width: 0px; fill: rgb(170, 196, 231);"/>
    <rect x="65.72" y="530.242" width="140.35" height="74.612" style="stroke: rgb(0, 0, 0); stroke-width: 0px; fill: rgb(252, 213, 1);"/>
    <ellipse style="stroke: rgb(0, 0, 0); stroke-width: 0px; fill: rgb(160, 183, 214);" cx="627.9" cy="204" rx="72.355" ry="72.355"/>
    <path d="M 558.699 204.703 C 558.699 166.059 590.027 134.732 628.671 134.732 C 643.782 134.732 657.773 139.521 669.211 147.666 C 659.374 142.424 648.142 139.454 636.218 139.454 C 597.411 139.454 565.951 170.913 565.951 209.721 C 565.951 231.711 576.053 251.342 591.87 264.227 C 571.96 251.891 558.699 229.845 558.699 204.703 Z" style="stroke: rgb(0, 0, 0); stroke-width: 0px; fill: rgba(15, 15, 15, 0.235);"/>
    <path style="stroke: rgb(0, 0, 0); stroke-width: 0px; fill: rgb(142, 195, 190);" d="M 587.351 504.056 C 587.351 504.056 587.351 504.056 588.421 503.39 C 589.491 502.724 591.631 501.393 594.783 500.02 C 597.935 498.648 602.099 497.235 605.375 495.608 C 608.65 493.981 611.038 492.14 613.203 490.938 C 615.368 489.735 617.312 489.172 618.723 489.451 C 620.134 489.729 621.012 490.851 622.121 491.569 C 623.229 492.288 624.568 492.603 626.143 492.412 C 627.718 492.222 629.53 491.524 631.37 490.759 C 633.211 489.993 635.079 489.16 637.085 488.314 C 639.09 487.468 641.231 486.609 643.512 485.884 C 645.793 485.159 648.212 484.568 651.309 483.6 C 654.406 482.631 658.18 481.287 662.362 480.081 C 666.544 478.876 671.133 477.81 674.993 476.927 C 678.852 476.044 681.982 475.345 684.126 475.231 C 685.19 475.175 686.011 475.263 686.657 475.476 L 683.039 477.502 L 673.354 480.672 L 662.778 484.676 L 648.162 492.314 L 636.191 496.855 L 623.357 499.99 L 608.969 502.741 L 597.267 503.867 L 590.362 504.228 C 590.124 504.216 589.903 504.203 589.7 504.191 C 587.351 504.056 587.351 504.056 587.351 504.056 Z"/>
    <path style="stroke: rgb(0, 0, 0); stroke-width: 0px; fill: rgb(56, 52, 48);" d="M 586.4366666666666 503.9003333333333 C 587.4383333333334 503.7236666666667 589.4416666666667 503.3703333333333 591.7703333333334 502.6468333333333 C 594.099 501.92333333333335 596.753 500.8296666666667 599.4015 499.72566666666665 C 602.0500000000001 498.62166666666667 604.6930000000001 497.5073333333333 607.2118333333334 496.17650000000003 C 609.7306666666667 494.8456666666666 612.1253333333333 493.29833333333335 614.476 491.50499999999994 C 616.8266666666667 489.71166666666664 619.1333333333333 487.67233333333326 621.2575 485.4298333333333 C 623.3816666666667 483.1873333333333 625.3233333333334 480.7416666666666 627.0246666666667 478.77133333333336 C 628.726 476.801 630.187 475.306 631.8841666666666 474.2925 C 633.5813333333334 473.279 635.5146666666666 472.747 638.037 472.2191666666666 C 640.5593333333333 471.6913333333334 643.6706666666668 471.16766666666666 646.6975 470.7286666666667 C 649.7243333333334 470.28966666666673 652.6666666666666 469.93533333333335 655.6450000000001 469.625 C 658.6233333333333 469.31466666666665 661.6376666666666 469.04833333333335 665.4761666666667 468.86016666666666 C 669.3146666666667 468.672 673.9773333333334 468.56199999999995 676.0015 468.3056666666667 C 678.0256666666667 468.0493333333334 677.4113333333333 467.6466666666667 675.7244999999999 467.4593333333333 C 674.0376666666667 467.272 671.2783333333333 467.3 667.8965 467.36550000000005 C 664.5146666666666 467.431 660.5103333333333 467.53399999999993 656.3398333333333 467.8833333333334 C 652.1693333333333 468.2326666666666 647.8326666666667 468.8283333333333 644.5255 469.25500000000005 C 641.2183333333334 469.6816666666667 638.9406666666667 469.9393333333333 636.9288333333334 470.2283333333333 C 634.917 470.5173333333334 633.1709999999999 470.8376666666666 631.5591666666666 471.7863333333334 C 629.9473333333333 472.73499999999996 628.4696666666666 474.31200000000007 626.9788333333333 475.7561666666666 C 625.4879999999999 477.2003333333334 623.984 478.5116666666666 622.3556666666667 480.2635 C 620.7273333333334 482.0153333333333 618.9746666666666 484.2076666666667 617.1891666666667 485.93499999999995 C 615.4036666666667 487.6623333333334 613.5853333333333 488.9246666666666 611.8913333333334 490.15633333333335 C 610.1973333333334 491.388 608.6276666666666 492.589 607.0058333333333 493.6486666666667 C 605.384 494.7083333333333 603.7099999999999 495.6266666666667 601.6183333333333 496.4883333333334 C 599.5266666666666 497.34999999999997 597.0173333333333 498.155 594.9723333333334 498.9745 C 592.9273333333334 499.79400000000004 591.3466666666667 500.628 589.9075 501.21866666666665 C 588.4683333333334 501.8093333333333 587.1706666666668 502.1566666666667 586.2578333333335 502.4451666666667 C 585.345 502.7336666666667 584.817 502.9633333333333 584.744 503.2255 C 584.6709999999999 503.48766666666666 585.053 503.7823333333333 585.2439999999999 503.9296666666667 C 585.435 504.077 585.435 504.077 585.435 504.07700000000006 C 585.435 504.077 585.435 504.077 586.4366666666666 503.9003333333333" bx:d="M 585.435 504.077 U 591.445 503.017 U 599.407 499.736 U 607.336 496.393 U 614.52 491.751 U 621.44 485.633 U 627.265 478.296 U 631.648 473.811 U 637.448 472.215 U 646.782 470.644 U 655.609 469.581 U 664.652 468.782 U 678.64 468.452 U 676.797 467.244 U 668.519 467.328 U 656.506 467.637 U 643.496 469.424 U 636.663 470.197 U 631.425 471.158 U 626.992 475.889 U 622.48 479.823 U 617.222 486.4 U 611.767 490.187 U 607.058 493.79 U 602.036 496.545 U 594.508 498.96 U 589.766 501.462 U 585.873 502.504 U 584.289 503.193 U 585.435 504.077 U 585.435 504.077 Z 1@4a3a41fd"/>
    <path style="stroke: rgb(0, 0, 0); stroke-width: 0px; fill: rgb(151, 213, 209);" d="M 579.084 498.536 C 579.441 495.703 580.155 490.037 581.185 484.518 C 582.214 478.999 583.56 473.628 585.447 468.127 C 587.334 462.626 589.763 456.997 592.527 451.792 C 595.29 446.588 598.388 441.809 602.464 436.629 C 606.541 431.449 611.595 425.869 615.974 421.076 C 620.353 416.283 624.055 412.279 628.312 407.858 C 632.568 403.436 637.378 398.599 642.172 393.772 C 646.966 388.946 651.743 384.131 656.123 380.345 C 660.503 376.56 664.486 373.804 668.913 370.92 C 673.339 368.035 678.211 365.022 682.265 362.452 C 686.32 359.882 689.557 357.756 692.94 355.999 C 696.323 354.243 699.851 352.856 702.922 351.722 C 705.993 350.587 708.607 349.703 710.785 349.015 C 712.963 348.327 714.705 347.833 715.576 347.587 C 716.447 347.34 716.447 347.34 716.447 347.34 C 716.447 347.34 716.447 347.34 716.09 348.243 C 715.733 349.145 715.02 350.951 713.697 353.535 C 712.373 356.12 710.441 359.484 707.415 364.072 C 704.389 368.659 700.269 374.47 696.94 379.18 C 693.611 383.891 691.073 387.5 687.497 392.27 C 683.921 397.039 679.309 402.969 673.689 410.442 C 668.07 417.915 661.444 426.932 656.463 433.918 C 651.481 440.903 648.144 445.857 644.842 451.184 C 641.54 456.511 638.272 462.21 635.059 466.722 C 631.846 471.233 628.688 474.556 624.644 478.412 C 620.601 482.268 615.672 486.658 609.43 490.449 C 603.187 494.24 595.629 497.433 590.293 499.153 C 584.957 500.874 581.842 501.121 580.285 501.245 C 578.727 501.369 578.727 501.369 578.727 501.369 C 578.727 501.369 578.727 501.369 579.084 498.536" bx:d="M 578.727 501.369 U 580.869 484.371 U 584.905 468.256 U 592.192 451.367 U 601.486 437.03 U 616.65 420.288 U 627.758 408.274 U 642.188 393.761 U 656.521 379.316 U 668.468 371.048 U 683.082 362.009 U 692.795 355.629 U 703.379 351.47 U 711.221 348.82 U 716.447 347.34 U 716.447 347.34 U 716.447 347.34 U 714.306 352.756 U 708.508 362.848 U 696.15 380.281 U 688.534 391.11 U 674.696 408.898 U 654.818 435.949 U 644.807 450.811 U 635.005 467.91 U 625.529 477.879 U 610.744 491.047 U 588.072 500.626 U 578.727 501.369 U 578.727 501.369 Z 1@a4e23d93"/>
    <path style="stroke: rgb(0, 0, 0); stroke-width: 0px; fill: rgb(142, 195, 190);" d="M 697.165 370.467 C 697.787 370.097 702.701 363.382 704.017 363.007 C 705.334 362.632 709.9 357.879 711.177 357.692 C 712.21 357.541 706.727 363.934 707.613 364.033 L 696.123 380.241 L 688.507 391.07 L 674.669 408.858 L 654.791 435.909 L 644.78 450.771 L 634.978 467.87 L 625.502 477.839 L 612.19 488.61 L 597.198 496.965 C 596.674 495.744 586.995 500.717 588.339 499.68 C 589.931 498.451 594.731 494.377 596.814 493.59 C 598.898 492.802 600.765 491.189 602.745 489.684 C 604.724 488.178 606.815 486.782 609.452 483.751 C 612.088 480.721 615.453 477.175 619.095 472.727 C 622.736 468.279 626.655 462.93 630.497 457.554 C 634.339 452.178 637.14 446.288 640.871 441.08 C 644.601 435.872 647.131 430.527 650.399 426.122 C 653.667 421.716 656.299 418.85 658.823 415.855 C 661.346 412.86 663.447 410.186 665.208 407.767 C 666.969 405.349 669.957 404.566 671.663 401.809 C 673.37 399.053 675.927 396.599 678.256 393.426 C 680.585 390.253 681.475 389.937 684.577 385.763 C 687.678 381.59 688.681 380.64 690.502 378.205 C 692.323 375.77 693.385 374.8 693.385 374.8 C 693.385 374.8 696.543 370.838 697.165 370.467 Z"/>
    <path style="stroke: rgb(0, 0, 0); stroke-width: 0px; fill: rgb(56, 52, 48);" d="M 581.665 499.635 C 583.06 498.031 585.849 494.825 588.894 491.312 C 591.939 487.8 595.239 483.981 598.347 480.304 C 601.454 476.626 604.37 473.09 608.141 468.27 C 611.912 463.451 616.538 457.349 621.881 450.38 C 627.224 443.411 633.284 435.574 639.055 428.034 C 644.826 420.494 650.309 413.249 654.73 407.491 C 659.151 401.732 662.51 397.46 666.096 393.375 C 669.683 389.29 673.496 385.392 677.221 381.476 C 680.945 377.559 684.581 373.624 685.966 371.939 C 687.351 370.254 686.487 370.819 684.313 372.916 C 682.139 375.013 678.655 378.641 675.586 381.809 C 672.516 384.978 669.859 387.686 666.972 390.85 C 664.085 394.014 660.968 397.633 657.941 401.298 C 654.915 404.964 651.979 408.675 648.724 412.775 C 645.468 416.874 641.891 421.362 638.344 425.941 C 634.797 430.52 631.279 435.191 627.826 439.7 C 624.372 444.208 620.983 448.554 617.302 453.273 C 613.621 457.992 609.649 463.085 606.243 467.381 C 602.838 471.677 599.999 475.178 596.905 478.818 C 593.81 482.458 590.458 486.238 587.396 489.898 C 584.333 493.558 581.558 497.099 580.26 499.032 C 578.961 500.964 579.139 501.29 579.386 501.39 C 579.634 501.489 579.952 501.364 580.111 501.301 C 580.27 501.238 580.27 501.238 580.27 501.238 C 580.27 501.238 580.27 501.238 581.665 499.635" bx:d="M 580.27 501.238 U 588.639 491.618 U 598.539 480.163 U 607.285 469.553 U 621.165 451.247 U 639.343 427.738 U 655.792 406.005 U 665.869 393.187 U 677.31 381.495 U 688.216 369.688 U 685.622 371.385 U 675.172 382.269 U 667.203 390.395 U 657.85 401.252 U 649.044 412.387 U 638.315 425.849 U 627.761 439.862 U 617.594 452.9 U 605.676 468.177 U 597.161 478.678 U 587.107 490.018 U 578.784 500.639 U 579.316 501.615 U 580.27 501.238 U 580.27 501.238 Z 1@bd70a513"/>
  </g>
  <g id="button" transform="matrix(0.957998, 0, 0, 0.957998, 4.995727, 61.262489)" style="">
    <ellipse style="stroke: rgb(0, 0, 0); stroke-width: 0px; fill: rgba(116, 116, 116, 0.16);" cx="33.382" cy="84.028" rx="15" ry="15"/>
    <ellipse style="stroke: rgb(0, 0, 0); stroke-width: 0px; fill: rgb(220, 220, 220);" cx="30" cy="80" rx="15" ry="15"/>
    <path d="M 15 80 C 15 71.716 21.716 65 30 65 C 34.377 65 38.316 66.875 41.058 69.865 C 38.492 67.812 35.237 66.585 31.696 66.585 C 23.412 66.585 16.696 73.301 16.696 81.585 C 16.696 85.493 18.191 89.052 20.64 91.722 C 17.202 88.973 15 84.744 15 80 Z" style="stroke: rgb(0, 0, 0); stroke-width: 0px; fill: rgba(255, 255, 255, 0.573);"/>
    <path d="M 45 80 C 45 88.284 38.284 95 30 95 C 23.33 95 17.677 90.646 15.727 84.626 C 18.441 88.481 22.927 91 28 91 C 36.284 91 43 84.284 43 76 C 43 74.386 42.745 72.831 42.273 71.374 C 43.991 73.814 45 76.789 45 80 Z" style="stroke: rgb(0, 0, 0); stroke-width: 0px; fill: rgba(0, 0, 0, 0.204);"/>
  </g>
  <g id="g-1" transform="matrix(0.957998, 0, 0, 0.957998, 18.694305, 401.091644)" style="">
    <ellipse style="stroke: rgb(0, 0, 0); stroke-width: 0px; fill: rgba(116, 116, 116, 0.16);" cx="33.382" cy="84.028" rx="15" ry="15"/>
    <ellipse style="stroke: rgb(0, 0, 0); stroke-width: 0px; fill: rgb(252, 213, 1);" cx="30" cy="80" rx="15" ry="15"/>
    <path d="M 15 80 C 15 71.716 21.716 65 30 65 C 34.377 65 38.316 66.875 41.058 69.865 C 38.492 67.812 35.237 66.585 31.696 66.585 C 23.412 66.585 16.696 73.301 16.696 81.585 C 16.696 85.493 18.191 89.052 20.64 91.722 C 17.202 88.973 15 84.744 15 80 Z" style="stroke: rgb(0, 0, 0); stroke-width: 0px; fill: rgba(255, 255, 255, 0.573);"/>
    <path d="M 45 80 C 45 88.284 38.284 95 30 95 C 23.33 95 17.677 90.646 15.727 84.626 C 18.441 88.481 22.927 91 28 91 C 36.284 91 43 84.284 43 76 C 43 74.386 42.745 72.831 42.273 71.374 C 43.991 73.814 45 76.789 45 80 Z" style="stroke: rgb(0, 0, 0); stroke-width: 0px; fill: rgba(0, 0, 0, 0.204);"/>
  </g>
  <g id="g-2" transform="matrix(1.769931, 0, 0, 1.769931, -16.146845, 180.625748)" style="">
    <ellipse style="stroke: rgb(0, 0, 0); stroke-width: 0px; fill: rgba(116, 116, 116, 0.16);" cx="33.382" cy="84.028" rx="15" ry="15"/>
    <ellipse style="stroke: rgb(0, 0, 0); stroke-width: 0px; fill: rgb(220, 220, 220);" cx="30" cy="80" rx="15" ry="15"/>
    <ellipse style="stroke: rgb(0, 0, 0); stroke-width: 0px; fill: rgb(172, 195, 227);" cx="30.028" cy="79.989" rx="12.43" ry="12.43"/>
    <path d="M 15 80 C 15 71.716 21.716 65 30 65 C 34.377 65 38.316 66.875 41.058 69.865 C 38.492 67.812 35.237 66.585 31.696 66.585 C 23.412 66.585 16.696 73.301 16.696 81.585 C 16.696 85.493 18.191 89.052 20.64 91.722 C 17.202 88.973 15 84.744 15 80 Z" style="stroke: rgb(0, 0, 0); stroke-width: 0px; fill: rgba(255, 255, 255, 0.573);"/>
    <path d="M 45 80 C 45 88.284 38.284 95 30 95 C 23.33 95 17.677 90.646 15.727 84.626 C 18.441 88.481 22.927 91 28 91 C 36.284 91 43 84.284 43 76 C 43 74.386 42.745 72.831 42.273 71.374 C 43.991 73.814 45 76.789 45 80 Z" style="stroke: rgb(0, 0, 0); stroke-width: 0px; fill: rgba(0, 0, 0, 0.204);"/>
  </g>
  <g id="g-3" transform="matrix(0.754371, 0, 0, 0.754371, -11.315565, 315.263641)" style="">
    <path d="M 45 80 C 45 80.01 45 80.021 45 80.031 L 45.063 80.031 L 45.063 132.219 L 15 132.219 L 15 80.031 C 15 80.021 15 80.01 15 80 C 15 71.716 21.716 65 30 65 C 38.284 65 45 71.716 45 80 Z" style="stroke: rgb(0, 0, 0); stroke-width: 0px; fill: rgb(63, 61, 63);"/>
    <path d="M 45 80 C 45 80.01 45 80.021 45 80.031 L 45.063 80.031 L 45.063 83.749 L 45.004 83.749 C 45.004 83.74 45.004 83.73 45.004 83.72 C 45.004 76.027 38.767 69.789 31.073 69.789 C 23.379 69.789 17.142 76.027 17.142 83.72 C 17.142 83.73 17.142 132.21 17.142 132.219 L 15 132.219 C 15 132.209 15 80.01 15 80 C 15 71.716 21.716 65 30 65 C 38.284 65 45 71.716 45 80 Z" style="stroke: rgb(0, 0, 0); stroke-width: 0px; fill: rgba(255, 255, 255, 0.21);"/>
    <path d="M 48.129 81.956 C 48.129 81.966 48.129 81.977 48.129 81.987 L 48.192 81.987 L 48.192 134.175 L 18.129 134.175 C 18.129 134.174 18.129 133.467 18.129 132.219 L 45.063 132.219 L 45.063 80.031 L 45 80.031 C 45 80.021 45 80.01 45 80 C 45 75.296 42.834 71.097 39.445 68.347 C 44.573 70.731 48.129 75.928 48.129 81.956 Z" style="stroke: rgb(0, 0, 0); stroke-width: 0px; fill: rgba(0, 0, 0, 0.2);"/>
    <path style="stroke: rgb(0, 0, 0); stroke-width: 0px; fill: rgb(255, 255, 255);" d="M 22.525 75.244 C 22.945 74.926 23.786 74.29 24.233 73.635 C 24.68 72.979 24.732 72.305 24.405 72.053 C 24.077 71.801 23.369 71.973 22.68 72.327 C 21.99 72.682 21.32 73.22 20.81 73.93 C 20.3 74.64 19.952 75.522 20.194 75.823 C 20.437 76.123 21.27 75.843 21.687 75.702 C 22.104 75.562 22.104 75.562 22.104 75.562 C 22.104 75.562 22.104 75.562 22.525 75.244" bx:d="M 22.104 75.562 U 24.627 73.654 U 24.785 71.63 U 22.661 72.144 U 20.649 73.758 U 19.603 76.404 U 22.104 75.562 U 22.104 75.562 Z 1@6ba47e0a"/>
  </g>
  <g id="g-4" transform="matrix(0.749968, 0, 0, 0.749968, 47.484489, 135.910324)" style="">
    <path d="M 36.056 154.526 C 36.056 163.174 29.046 170.184 20.398 170.184 C 11.75 170.184 4.74 163.174 4.74 154.526 L 4.74 123.21 C 4.74 114.562 11.75 107.552 20.398 107.552 C 29.046 107.552 36.056 114.562 36.056 123.21 C 36.056 123.27 36.056 123.329 36.055 123.389 L 36.055 154.347 C 36.056 154.407 36.056 154.466 36.056 154.526 Z" style="stroke: rgb(0, 0, 0); stroke-width: 0px; fill: rgba(116, 116, 116, 0.16);"/>
    <path d="M 30.67 148.509 C 30.67 157.157 23.66 164.167 15.012 164.167 C 6.364 164.167 -0.646 157.157 -0.646 148.509 L -0.646 117.193 C -0.646 108.545 6.364 101.535 15.012 101.535 C 23.66 101.535 30.67 108.545 30.67 117.193 C 30.67 117.253 30.67 117.312 30.669 117.372 L 30.669 148.33 C 30.67 148.39 30.67 148.449 30.67 148.509 Z" style="stroke: rgb(0, 0, 0); stroke-width: 0px; fill: rgb(252, 213, 1);"/>
    <path d="M -0.646 148.508 L -0.646 117.192 C -0.646 108.544 6.364 101.534 15.012 101.534 C 22.767 101.534 29.205 107.171 30.452 114.572 C 27.9 109.387 22.564 105.82 16.395 105.82 C 7.747 105.82 0.737 112.83 0.737 121.478 L 0.737 152.794 C 0.737 153.687 0.812 154.562 0.955 155.414 C -0.07 153.331 -0.646 150.987 -0.646 148.508 Z" style="stroke: rgb(0, 0, 0); stroke-width: 0px; fill: rgba(255, 255, 255, 0.298);"/>
    <path d="M 30.67 148.509 C 30.67 157.157 23.66 164.167 15.012 164.167 C 9.868 164.167 5.303 161.686 2.449 157.856 C 5.276 160.649 9.162 162.373 13.451 162.373 C 22.099 162.373 29.109 155.363 29.109 146.715 C 29.109 146.655 29.109 146.596 29.108 146.536 L 29.108 115.578 C 29.109 115.518 29.109 115.459 29.109 115.399 C 29.109 111.895 27.958 108.66 26.014 106.052 C 28.889 108.891 30.67 112.834 30.67 117.193 C 30.67 117.253 30.67 117.312 30.669 117.372 L 30.669 148.33 C 30.67 148.39 30.67 148.449 30.67 148.509 Z" style="stroke: rgb(0, 0, 0); stroke-width: 0px; fill: rgba(0, 0, 0, 0.086);"/>
    <path style="stroke: rgb(0, 0, 0); stroke-width: 0px; fill: rgb(255, 255, 255);" d="M 12.015 107.628 C 11.276 107.754 9.799 108.008 8.466 108.686 C 7.133 109.365 5.943 110.469 6.047 111.543 C 6.151 112.616 7.547 113.659 8.716 113.925 C 9.885 114.191 10.827 113.681 11.598 112.894 C 12.368 112.107 12.969 111.044 13.133 110.099 C 13.297 109.154 13.025 108.328 12.889 107.914 C 12.753 107.501 12.753 107.501 12.753 107.501 C 12.753 107.501 12.753 107.501 12.015 107.628" bx:d="M 12.753 107.501 U 8.322 108.261 U 4.754 111.573 U 8.944 114.702 U 11.768 113.17 U 13.569 109.981 U 12.753 107.501 U 12.753 107.501 Z 1@da71f0e5"/>
  </g>
</svg>