<svg width="24" height="24" viewBox="0 0 24 24" fill="none" xmlns="http://www.w3.org/2000/svg">
<path d="M9.35494 6.64204L9.35493 6.64205L9.35784 6.64494C9.4047 6.69142 9.4419 6.74672 9.46728 6.80765C9.49267 6.86858 9.50574 6.93393 9.50574 6.99994C9.50574 7.06594 9.49267 7.1313 9.46728 7.19223C9.4419 7.25316 9.4047 7.30846 9.35784 7.35494L9.3568 7.35597L5.0568 11.646L4.70201 11.9999L5.0568 12.3539L9.3568 16.6439L9.35784 16.6449C9.4047 16.6914 9.4419 16.7467 9.46728 16.8077C9.49267 16.8686 9.50574 16.9339 9.50574 16.9999C9.50574 17.0659 9.49267 17.1313 9.46728 17.1922C9.4419 17.2532 9.4047 17.3085 9.35784 17.3549L9.35783 17.3549L9.35494 17.3578C9.30845 17.4047 9.25315 17.4419 9.19223 17.4673C9.1313 17.4927 9.06595 17.5057 8.99994 17.5057C8.93393 17.5057 8.86858 17.4927 8.80765 17.4673C8.74673 17.4419 8.69142 17.4047 8.64494 17.3578L8.64349 17.3564L3.64349 12.3564L3.6435 12.3564L3.64204 12.3549C3.59518 12.3085 3.55798 12.2532 3.53259 12.1922C3.50721 12.1313 3.49414 12.0659 3.49414 11.9999C3.49414 11.9339 3.50721 11.8686 3.53259 11.8077C3.55798 11.7467 3.59518 11.6914 3.64204 11.6449L3.64204 11.6449L3.64349 11.6435L8.64349 6.64349L8.6435 6.6435L8.64494 6.64204C8.69142 6.59518 8.74672 6.55798 8.80765 6.53259C8.86858 6.50721 8.93393 6.49414 8.99994 6.49414C9.06594 6.49414 9.1313 6.50721 9.19223 6.53259C9.25316 6.55798 9.30846 6.59518 9.35494 6.64204ZM20.3564 11.6435L20.3578 11.6449C20.4047 11.6914 20.4419 11.7467 20.4673 11.8076C20.4927 11.8686 20.5057 11.9339 20.5057 11.9999C20.5057 12.0659 20.4927 12.1313 20.4673 12.1922C20.4419 12.2532 20.4047 12.3085 20.3578 12.3549L20.3564 12.3564L15.3564 17.3564L15.3549 17.3578C15.3085 17.4047 15.2532 17.4419 15.1922 17.4673C15.1313 17.4927 15.0659 17.5057 14.9999 17.5057C14.9339 17.5057 14.8686 17.4927 14.8077 17.4673C14.7467 17.4419 14.6914 17.4047 14.6449 17.3578L14.642 17.3549C14.5952 17.3085 14.558 17.2532 14.5326 17.1922C14.5072 17.1313 14.4941 17.0659 14.4941 16.9999C14.4941 16.9339 14.5072 16.8686 14.5326 16.8077C14.558 16.7467 14.5952 16.6914 14.642 16.6449L14.6431 16.6439L18.9431 12.3539L19.2979 11.9999L18.9431 11.646L14.6435 7.35639C14.6434 7.35628 14.6433 7.35616 14.6432 7.35605C14.5488 7.26155 14.4958 7.13348 14.4958 6.99994C14.4958 6.93374 14.5089 6.86819 14.5342 6.80703C14.5596 6.74587 14.5967 6.6903 14.6435 6.64349C14.738 6.54896 14.8662 6.49585 14.9999 6.49585C15.0661 6.49585 15.1317 6.50889 15.1928 6.53422C15.254 6.55955 15.3096 6.59668 15.3564 6.64349L20.3564 11.6435Z" fill="black" stroke="black"/>
</svg>
